<svg width="512" height="512" viewBox="0 0 512 512" fill="none" xmlns="http://www.w3.org/2000/svg">
<rect width="512" height="512" rx="100" fill="#BEF264"/>
<path d="M68.2386 354.091H137.131L203.466 479.375H206.307L272.642 354.091H341.534L235.426 542.159V645H174.347V542.159L68.2386 354.091ZM624.879 499.545C624.879 531.269 618.866 558.258 606.839 580.511C594.908 602.765 578.62 619.763 557.976 631.506C537.427 643.153 514.321 648.977 488.658 648.977C462.805 648.977 439.605 643.106 419.055 631.364C398.506 619.621 382.266 602.623 370.334 580.369C358.402 558.116 352.436 531.174 352.436 499.545C352.436 467.822 358.402 440.833 370.334 418.58C382.266 396.326 398.506 379.375 419.055 367.727C439.605 355.985 462.805 350.114 488.658 350.114C514.321 350.114 537.427 355.985 557.976 367.727C578.62 379.375 594.908 396.326 606.839 418.58C618.866 440.833 624.879 467.822 624.879 499.545ZM562.521 499.545C562.521 478.996 559.444 461.667 553.288 447.557C547.228 433.447 538.658 422.746 527.578 415.455C516.499 408.163 503.525 404.517 488.658 404.517C473.79 404.517 460.817 408.163 449.737 415.455C438.658 422.746 430.04 433.447 423.885 447.557C417.824 461.667 414.794 478.996 414.794 499.545C414.794 520.095 417.824 537.424 423.885 551.534C430.04 565.644 438.658 576.345 449.737 583.636C460.817 590.928 473.79 594.574 488.658 594.574C503.525 594.574 516.499 590.928 527.578 583.636C538.658 576.345 547.228 565.644 553.288 551.534C559.444 537.424 562.521 520.095 562.521 499.545ZM913.764 354.091V645H860.639L734.077 461.903H731.946V645H670.44V354.091H724.418L849.986 537.045H852.543V354.091H913.764Z" fill="black"/>
</svg>
